<?xml version="1.0" encoding="utf-8"?>
<svg version="1.1" id="Capa_1" xmlns="http://www.w3.org/2000/svg" xmlns:xlink="http://www.w3.org/1999/xlink" x="0px" y="0px"
	 viewBox="0 0 500 400" style="enable-background:new 0 0 500 400;" xml:space="preserve">
<style type="text/css">
	.st0{fill:#1E88E5;} /* Azul principal para la mayor parte del cerebro */
	.st1{fill:#1565C0;} /* Azul más oscuro para detalles y profundidad */
	.st2{fill:none;stroke:#0D47A1;stroke-width:2;stroke-miterlimit:10;} /* Línea de contorno azul muy oscura */
</style>

<rect width="500" height="400" style="fill:#F5F5F5;"/>

<g id="Cerebro_Azul">
	<path class="st0 st2" d="M250,50c-55.2,0-100,44.8-100,100c0,23.1,8.1,44.2,21.3,61.2C162.7,222.8,150,239.9,150,259.6
		c0,16.8,9.2,31.4,22.8,39.3c-2.8,5.4-4.4,11.5-4.4,18c0,22.1,17.9,40,40,40c10.3,0,19.6-3.9,26.7-10.3c6.1,1.9,12.6,2.9,19.3,2.9
		c10.1,0,19.6-2.2,28-6.1C286.7,351,291.9,357,300,357c22.1,0,40-17.9,40-40c0-6.5-1.6-12.6-4.4-18c13.6-7.9,22.8-22.5,22.8-39.3
		c0-19.7-12.7-36.8-21.3-48.4c13.2-17,21.3-38.1,21.3-61.2C350,94.8,305.2,50,250,50z M350,332.6c14.5,0,28.2,0.5,41.4,1.4
		c-2.4,1.1-5,1.7-7.9,1.7c-10.6,0-19.2-8.6-19.2-19.2c0-3.4,1.3-6.6,3.1-9.4c-1.9,0.7-3.9,1-6.1,1c-10.6,0-19.2-8.6-19.2-19.2
		c0-1.6,0.5-3.1,1.1-4.6c-1.5,0.4-3.1,0.6-4.8,0.6c-10.6,0-19.2-8.6-19.2-19.2c0-5.3,2.1-10.3,6.9-12.7c-1.3-1.3-2.6-2.5-4.3-3.6
		c-10.9-7.3-18-19.8-18-33.5c0-9.6,3.5-18.5,8.8-26.3c9.1-12.7,14.4-28.2,14.4-45.4C313.7,108.5,286.2,77.3,250,72.4V332.6H350z"/>

	<path class="st1" d="M250,72.4v260.2c-36.2-4.9-63.7-36.1-63.7-77.6c0-17.2,5.4-32.7,14.4-45.4C206,203.2,209.5,194.3,209.5,184.7
		c0-13.7-7.1-26.2-18-33.5c-1.6-1.1-3-2.3-4.3-3.6c5.7,3.6,7.8,8.7,7.8,14c0,10.6-8.6,19.2-19.2,19.2c-1.7,0-3.3,0.2-4.8,0.6
		c0.6-1.5,1.1-3,1.1-4.6c0-10.6-8.6-19.2-19.2-19.2c-2.1,0-4.2,0.3-6.1,1c1.8-2.8,3.1-6,3.1-9.4c0-10.6-8.6-19.2-19.2-19.2
		c-2.8,0-5.5,0.6-7.9,1.7C121.8,73.3,135.5,72.8,150,72.8L250,72.4z"/>
</g>
</svg>